<?xml version="1.0" encoding="utf-8"?>
<!-- Generator: Adobe Illustrator 16.0.3, SVG Export Plug-In . SVG Version: 6.00 Build 0)  -->
<!DOCTYPE svg PUBLIC "-//W3C//DTD SVG 1.1//EN" "http://www.w3.org/Graphics/SVG/1.1/DTD/svg11.dtd">
<svg version="1.1" id="Capa_1" xmlns="http://www.w3.org/2000/svg" xmlns:xlink="http://www.w3.org/1999/xlink" x="0px" y="0px"
	 width="160.083px" height="42.75px" viewBox="107.417 29.75 160.083 42.75" enable-background="new 107.417 29.75 160.083 42.75"
	 xml:space="preserve">
<path fill="#A7BA3F" d="M98.5-205.333h84l-4,24h-64c0.5,25.958,28.5,17.833,59,19c-0.737,5.709-1.829,16.451-6.125,20.583
	c-4.11,3.955-16.501,3.417-21.875,3.417h-61c0.02,6.74,1.152,13.218,8.004,16.348c7.217,3.295,34.122,2.36,41.247,2.36
	c1.251,0,44.5,2.75,52.645-17.708c6.43-17.875,8.367-38.428,12.316-57c1.619-7.616,4.779-16.062-0.642-22.956
	c-6.597-8.39-20.669-7.086-30.069-7.086C145.785-224.375,108.625-228.5,98.5-205.333z"/>
<path fill="#543E78" d="M356.333-141.667l8-39c-8.693,1.575-12.477,7.89-14.35,16c-0.771,3.34-0.795,8.891-3.965,10.973
	c-3.193,2.098-9.043,1.027-12.686,1.027h-32c2.818-10.893,4.871-21.998,7.211-33c0.734-3.456,1.051-9.804,4.223-11.972
	c3.282-2.245,9.777-1.028,13.566-1.028c14.363,0,36.949,4.984,44-11h-42c-6.384,0-14.229-1.208-19.999,2.089
	c-12.71,7.264-13.288,33.792-16.004,46.911c-1.183,5.709-3.556,12.843,2.228,16.99c4.674,3.354,12.354,2.01,17.775,2.01H356.333z"/>
<path fill="#543E78" d="M435.667-171.333l-3,18h-57c0.245,4.479,1.458,8.309,6.016,10.106c4.465,1.761,10.277,0.894,14.984,0.894
	c12.27,0,34.923,4.52,43.605-6.044c5.152-6.269,11.619-29.348,0.379-32.522c-15.084-4.26-32.598,2.229-47.984-1.434
	c1.141-4.411,1.154-13.292,5.303-15.972c3.422-2.21,9.801-1.028,13.697-1.028c14.66,0,36.385,4.87,44-11h-41
	c-6.758,0-14.773-1.189-20.984,2c-8.312,4.267-18.586,30.892-6.91,36.142c4.469,2.01,11.099,0.858,15.895,0.858H435.667z"/>
<path fill="#543E78" d="M281.681-205.272c-3.601-4.042-14.348-3.395-14.348-3.395s-27.208,0.042-39,0.558
	c-16.791,0.735-16.472,31.996-19.424,45.442c-1.224,5.566-4.028,12.523-0.486,17.786c3.119,4.636,8.993,4.212,13.91,4.214
	c12.442,0.005,42.2,0.968,47.542-1.896c6.375-3.417,9.399-31.715,12.247-45.104C283.299-193.199,285.974-200.453,281.681-205.272z
	 M263.667-153.333h-45l9-44h45L263.667-153.333z"/>
<g>
	<path fill="#FFFFFF" d="M113.926,68.158c0,0-0.5-0.238-1.499-0.717c-0.999-0.478-1.802-1.17-2.409-2.078s-0.991-2.001-1.152-3.279
		h3.352c0.097,0.666,0.306,1.214,0.628,1.644s0.738,0.749,1.249,0.959c0.51,0.209,1.109,0.313,1.796,0.313
		c1.085,0,1.928-0.289,2.53-0.869s0.902-1.396,0.902-2.449v-0.709c0-1.172-0.285-2.076-0.854-2.716
		c-0.569-0.639-1.375-0.958-2.417-0.958h-1.66v-3.126h1.66c0.913,0,1.622-0.274,2.127-0.822s0.757-1.321,0.757-2.32v-0.725
		c0-0.924-0.266-1.638-0.798-2.143c-0.531-0.505-1.286-0.757-2.264-0.757c-0.559,0-1.058,0.105-1.499,0.314
		c-0.44,0.21-0.814,0.532-1.12,0.967c-0.307,0.436-0.529,0.98-0.669,1.636h-3.335c0.215-1.278,0.621-2.374,1.216-3.287
		c0.597-0.913,1.351-1.606,2.264-2.079s1.96-0.709,3.142-0.709c2.02,0,3.583,0.532,4.689,1.595s1.66,2.562,1.66,4.496v0.387
		c0,1.171-0.317,2.191-0.951,3.062s-1.531,1.504-2.691,1.901c1.278,0.279,2.269,0.908,2.973,1.885s1.056,2.224,1.056,3.738v0.387
		c0,1.364-0.263,2.529-0.79,3.496s-1.292,1.703-2.296,2.208s-2.215,0.757-3.633,0.757C114.582,68.158,113.926,68.158,113.926,68.158
		z"/>
	<path fill="#FFFFFF" d="M131.2,67.087c-1.246-0.714-2.21-1.724-2.892-3.029c-0.683-1.305-1.023-2.817-1.023-4.536v-6.638
		c0-1.719,0.341-3.231,1.023-4.536c0.682-1.306,1.646-2.315,2.892-3.029s2.686-1.072,4.318-1.072c1.632,0,3.072,0.357,4.318,1.072
		s2.211,1.724,2.893,3.029c0.683,1.305,1.023,2.817,1.023,4.536v6.638c0,1.719-0.341,3.231-1.023,4.536
		c-0.682,1.306-1.646,2.315-2.893,3.029c-1.246,0.715-2.686,1.071-4.318,1.071C133.885,68.158,132.446,67.802,131.2,67.087z
		 M138.072,64.268c0.735-0.436,1.305-1.053,1.708-1.854c0.402-0.8,0.604-1.727,0.604-2.779v-6.864c0-1.053-0.202-1.979-0.604-2.779
		c-0.403-0.8-0.973-1.418-1.708-1.854c-0.736-0.435-1.587-0.652-2.554-0.652s-1.818,0.218-2.554,0.652
		c-0.736,0.436-1.305,1.053-1.708,1.854c-0.402,0.8-0.604,1.727-0.604,2.779v6.864c0,1.053,0.202,1.979,0.604,2.779
		c0.403,0.801,0.972,1.418,1.708,1.854c0.736,0.435,1.587,0.652,2.554,0.652S137.336,64.702,138.072,64.268z"/>
	<path fill="#FFFFFF" d="M164.441,55.3v4.092c0,1.74-0.338,3.274-1.016,4.601c-0.676,1.327-1.635,2.353-2.876,3.078
		c-1.24,0.725-2.678,1.087-4.31,1.087c-1.655,0-3.107-0.34-4.359-1.022c-1.251-0.683-2.221-1.646-2.908-2.893
		s-1.031-2.69-1.031-4.335v-6.912c0-1.74,0.338-3.271,1.016-4.592c0.676-1.321,1.635-2.344,2.876-3.07
		c1.24-0.725,2.677-1.087,4.31-1.087c1.343,0,2.581,0.288,3.715,0.862c1.133,0.575,2.081,1.389,2.844,2.441s1.278,2.272,1.547,3.658
		h-3.561c-0.193-0.784-0.521-1.458-0.983-2.022c-0.462-0.564-1.005-0.994-1.628-1.289s-1.268-0.443-1.934-0.443
		c-0.967,0-1.815,0.231-2.545,0.693c-0.731,0.462-1.295,1.109-1.692,1.942s-0.597,1.802-0.597,2.908v6.912
		c0,1.01,0.204,1.894,0.613,2.651c0.407,0.757,0.985,1.345,1.731,1.765c0.747,0.418,1.608,0.628,2.587,0.628
		c0.967,0,1.814-0.218,2.545-0.652c0.73-0.436,1.295-1.066,1.692-1.894s0.597-1.811,0.597-2.949v-1.015h-4.754V55.3H164.441z"/>
	<path fill="#FFFFFF" d="M174.464,68.158c0,0-0.505-0.107-1.515-0.322s-1.952-0.537-2.828-0.967
		c-0.875-0.43-1.694-0.967-2.457-1.611l2.047-2.514c0.891,0.773,1.874,1.354,2.948,1.74s2.239,0.58,3.497,0.58
		c1.696,0,3.013-0.313,3.947-0.942c0.935-0.628,1.402-1.517,1.402-2.667v-0.016c0-0.816-0.213-1.463-0.637-1.941
		c-0.425-0.479-0.973-0.832-1.644-1.063c-0.672-0.231-1.539-0.443-2.603-0.637c-0.032-0.011-0.067-0.017-0.104-0.017
		c-0.038,0-0.073-0.005-0.104-0.016l-0.242-0.049c-1.568-0.268-2.844-0.571-3.827-0.91c-0.982-0.338-1.823-0.956-2.521-1.853
		s-1.048-2.173-1.048-3.827v-0.016c0-1.45,0.325-2.688,0.976-3.714c0.649-1.025,1.598-1.807,2.844-2.344s2.744-0.806,4.495-0.806
		c0.838,0,1.663,0.091,2.474,0.274c0.812,0.183,1.611,0.454,2.401,0.813c0.789,0.36,1.565,0.814,2.328,1.362l-1.869,2.61
		c-0.892-0.655-1.78-1.146-2.667-1.474c-0.886-0.328-1.775-0.492-2.667-0.492c-1.601,0-2.844,0.32-3.729,0.958
		c-0.887,0.64-1.329,1.544-1.329,2.715v0.016c0,0.806,0.228,1.439,0.685,1.901c0.456,0.462,1.025,0.803,1.708,1.023
		c0.682,0.22,1.63,0.448,2.844,0.685c0.043,0.011,0.083,0.019,0.121,0.024c0.037,0.005,0.077,0.013,0.121,0.024
		c0.053,0.011,0.112,0.021,0.177,0.032s0.123,0.021,0.177,0.032c1.418,0.29,2.603,0.634,3.554,1.031
		c0.95,0.398,1.745,1.04,2.385,1.925c0.639,0.887,0.958,2.098,0.958,3.634v0.032c0,1.429-0.338,2.65-1.015,3.666
		c-0.677,1.015-1.657,1.788-2.94,2.32c-1.284,0.531-2.834,0.797-4.648,0.797C175.027,68.158,174.464,68.158,174.464,68.158z"/>
	<path fill="#FFFFFF" d="M200.423,67.917v3.126h-13.406v-3.126H200.423z"/>
	<path fill="#FFFFFF" d="M207.263,67.136c-1.229-0.683-2.167-1.676-2.812-2.981c-0.645-1.305-0.967-2.876-0.967-4.713V44.488h3.287
		v15.066c0,1.707,0.43,3.029,1.289,3.963c0.859,0.936,2.073,1.402,3.642,1.402c1.579,0,2.801-0.467,3.666-1.402
		c0.864-0.934,1.297-2.256,1.297-3.963V44.488h3.287v14.953c0,1.837-0.322,3.408-0.967,4.713c-0.645,1.306-1.585,2.299-2.819,2.981
		c-1.236,0.683-2.724,1.022-4.464,1.022C209.973,68.158,208.493,67.818,207.263,67.136z"/>
	<path fill="#FFFFFF" d="M223.818,51.191h7.541v2.965h-7.541V51.191z M226.485,66.878c-0.629-0.747-0.942-1.851-0.942-3.312V46.325
		h3.287v17.273c0,0.408,0.08,0.723,0.241,0.942c0.161,0.221,0.397,0.33,0.709,0.33h1.579v3.127h-1.901
		C228.104,67.998,227.113,67.625,226.485,66.878z"/>
	<path fill="#FFFFFF" d="M235.871,44.488h3.287v3.287h-3.287V44.488z M235.871,51.191h3.287v16.726h-3.287V51.191z"/>
	<path fill="#FFFFFF" d="M247.441,63.599c0,0.408,0.089,0.723,0.266,0.942c0.178,0.221,0.428,0.33,0.75,0.33h1.547v3.127h-1.934
		c-1.247,0-2.211-0.387-2.893-1.16c-0.683-0.773-1.023-1.864-1.023-3.271V44.488h3.287V63.599z"/>
	<path fill="#FFFFFF" d="M257.979,68.158c0,0-0.432-0.096-1.297-0.289c-0.864-0.193-1.673-0.484-2.425-0.871
		s-1.445-0.869-2.079-1.449l1.95-2.401c0.902,0.688,1.799,1.203,2.69,1.547s1.773,0.516,2.643,0.516c1.3,0,2.275-0.201,2.925-0.604
		c0.65-0.402,0.976-1.007,0.976-1.813c0-0.537-0.178-0.939-0.532-1.209c-0.354-0.268-0.795-0.447-1.321-0.539
		s-1.268-0.175-2.224-0.25c-0.086,0-0.177-0.002-0.274-0.008c-0.096-0.006-0.188-0.014-0.273-0.024
		c-0.043,0-0.086-0.003-0.129-0.008s-0.086-0.009-0.129-0.009c-1.085-0.086-2.004-0.244-2.756-0.475s-1.377-0.664-1.877-1.297
		c-0.499-0.635-0.749-1.542-0.749-2.724s0.241-2.165,0.726-2.949c0.482-0.784,1.202-1.372,2.158-1.764s2.154-0.588,3.594-0.588
		c0.87,0,1.7,0.081,2.489,0.242c0.79,0.161,1.544,0.4,2.265,0.717c0.719,0.317,1.412,0.717,2.078,1.201l-1.982,2.401
		c-0.838-0.537-1.662-0.94-2.473-1.208c-0.812-0.269-1.604-0.403-2.377-0.403c-1.117,0-1.955,0.191-2.514,0.572
		s-0.838,0.953-0.838,1.716c0,0.451,0.158,0.79,0.476,1.015c0.316,0.227,0.717,0.377,1.2,0.451c0.483,0.076,1.171,0.141,2.063,0.193
		c0.064,0.012,0.132,0.017,0.201,0.017c0.07,0,0.143,0.005,0.218,0.017c0.032,0,0.064,0,0.097,0s0.064,0.005,0.097,0.016
		c1.171,0.075,2.167,0.23,2.989,0.467c0.821,0.236,1.512,0.704,2.07,1.402s0.838,1.708,0.838,3.029c0,1.203-0.258,2.199-0.773,2.989
		c-0.516,0.789-1.292,1.383-2.328,1.78c-1.037,0.397-2.34,0.596-3.908,0.596C258.473,68.158,257.979,68.158,257.979,68.158z"/>
</g>
</svg>
