<?xml version="1.0" encoding="utf-8"?>
<!-- Generator: Adobe Illustrator 16.0.3, SVG Export Plug-In . SVG Version: 6.00 Build 0)  -->
<!DOCTYPE svg PUBLIC "-//W3C//DTD SVG 1.1//EN" "http://www.w3.org/Graphics/SVG/1.1/DTD/svg11.dtd">
<svg version="1.1" id="Capa_1" xmlns="http://www.w3.org/2000/svg" xmlns:xlink="http://www.w3.org/1999/xlink" x="0px" y="0px"
	 width="160.083px" height="42.75px" viewBox="0 0 160.083 42.75" enable-background="new 0 0 160.083 42.75" xml:space="preserve">
<g>
	<path fill="#FFFFFF" d="M6.85,34.403c-1.348-0.772-2.391-1.865-3.128-3.276c-0.738-1.412-1.107-3.047-1.107-4.906v-7.182
		c0-1.859,0.369-3.494,1.107-4.906c0.738-1.412,1.78-2.504,3.128-3.276c1.348-0.773,2.905-1.159,4.671-1.159
		s3.323,0.386,4.671,1.159c1.348,0.772,2.391,1.865,3.128,3.276c0.738,1.412,1.107,3.047,1.107,4.906v7.182
		c0,1.859-0.369,3.494-1.107,4.906c-0.738,1.411-1.781,2.504-3.128,3.276c-1.348,0.773-2.905,1.159-4.671,1.159
		S8.197,35.177,6.85,34.403z M14.283,31.354c0.796-0.471,1.412-1.139,1.848-2.005c0.436-0.865,0.653-1.867,0.653-3.006v-7.425
		c0-1.139-0.218-2.141-0.653-3.007c-0.436-0.865-1.052-1.534-1.848-2.004c-0.796-0.47-1.717-0.706-2.763-0.706
		c-1.045,0-1.967,0.235-2.762,0.706c-0.796,0.471-1.412,1.139-1.848,2.004c-0.436,0.866-0.653,1.868-0.653,3.007v7.425
		c0,1.139,0.218,2.141,0.653,3.006c0.436,0.866,1.052,1.534,1.848,2.005c0.795,0.471,1.717,0.706,2.762,0.706
		C12.566,32.06,13.487,31.824,14.283,31.354z"/>
	<path fill="#FFFFFF" d="M42.806,21.654v4.427c0,1.882-0.366,3.541-1.098,4.976c-0.732,1.436-1.769,2.545-3.111,3.329
		c-1.342,0.784-2.896,1.177-4.663,1.177c-1.79,0-3.361-0.369-4.714-1.106c-1.354-0.738-2.403-1.781-3.146-3.129
		c-0.744-1.348-1.116-2.911-1.116-4.688v-7.478c0-1.882,0.366-3.538,1.098-4.967s1.769-2.536,3.111-3.32
		c1.342-0.784,2.896-1.176,4.662-1.176c1.452,0,2.792,0.311,4.018,0.933c1.226,0.622,2.251,1.502,3.076,2.64
		c0.825,1.139,1.383,2.458,1.673,3.957h-3.852c-0.209-0.848-0.563-1.577-1.063-2.188c-0.5-0.61-1.087-1.074-1.761-1.394
		c-0.674-0.319-1.371-0.479-2.091-0.479c-1.046,0-1.964,0.25-2.754,0.75c-0.79,0.5-1.4,1.2-1.83,2.1
		c-0.43,0.901-0.645,1.95-0.645,3.146v7.478c0,1.093,0.22,2.048,0.662,2.867c0.441,0.819,1.066,1.455,1.874,1.908
		s1.74,0.68,2.797,0.68c1.046,0,1.964-0.235,2.754-0.706c0.79-0.47,1.4-1.152,1.83-2.048c0.43-0.895,0.645-1.957,0.645-3.189v-1.098
		h-5.142v-3.399H42.806z"/>
	<path fill="#FFFFFF" d="M53.647,35.563c0,0-0.546-0.116-1.638-0.349c-1.093-0.232-2.112-0.581-3.059-1.046
		c-0.947-0.465-1.833-1.046-2.658-1.743l2.213-2.719c0.964,0.837,2.027,1.464,3.189,1.883c1.162,0.418,2.423,0.627,3.782,0.627
		c1.836,0,3.259-0.34,4.27-1.02s1.517-1.641,1.517-2.885v-0.017c0-0.884-0.23-1.584-0.688-2.101c-0.459-0.517-1.052-0.9-1.778-1.15
		c-0.727-0.25-1.665-0.479-2.815-0.688c-0.035-0.012-0.073-0.018-0.113-0.018c-0.041,0-0.079-0.006-0.113-0.018l-0.261-0.052
		c-1.697-0.291-3.077-0.619-4.14-0.985c-1.063-0.365-1.973-1.033-2.728-2.004c-0.755-0.97-1.133-2.35-1.133-4.139v-0.018
		c0-1.569,0.351-2.908,1.054-4.018c0.703-1.109,1.728-1.955,3.076-2.536c1.348-0.581,2.969-0.872,4.863-0.872
		c0.906,0,1.798,0.099,2.675,0.296s1.743,0.491,2.597,0.88c0.854,0.39,1.693,0.88,2.519,1.473l-2.022,2.823
		c-0.964-0.708-1.926-1.24-2.884-1.595c-0.959-0.354-1.92-0.532-2.885-0.532c-1.731,0-3.076,0.346-4.035,1.037
		c-0.958,0.691-1.438,1.67-1.438,2.937v0.018c0,0.871,0.247,1.557,0.741,2.057c0.494,0.5,1.109,0.869,1.848,1.106
		c0.738,0.238,1.763,0.485,3.076,0.741c0.046,0.012,0.09,0.021,0.131,0.026c0.041,0.006,0.084,0.015,0.13,0.026
		c0.058,0.012,0.122,0.023,0.192,0.035s0.133,0.023,0.192,0.035c1.534,0.314,2.814,0.686,3.843,1.116
		c1.028,0.43,1.888,1.124,2.58,2.083c0.691,0.958,1.037,2.269,1.037,3.93v0.035c0,1.546-0.366,2.867-1.098,3.965
		c-0.732,1.099-1.792,1.936-3.181,2.511c-1.389,0.574-3.065,0.862-5.028,0.862C54.257,35.563,53.647,35.563,53.647,35.563z"/>
	<path fill="#FFFFFF" d="M81.726,35.301v3.382H67.225v-3.382H81.726z"/>
	<path fill="#FFFFFF" d="M89.125,34.456c-1.331-0.738-2.345-1.813-3.042-3.225c-0.696-1.412-1.045-3.111-1.045-5.099V9.958h3.556
		v16.296c0,1.848,0.464,3.277,1.394,4.288s2.243,1.517,3.939,1.517c1.708,0,3.029-0.506,3.965-1.517s1.403-2.44,1.403-4.288V9.958
		h3.556v16.174c0,1.987-0.349,3.687-1.046,5.099c-0.697,1.411-1.714,2.486-3.05,3.225c-1.337,0.737-2.946,1.106-4.828,1.106
		C92.056,35.563,90.456,35.193,89.125,34.456z"/>
	<path fill="#FFFFFF" d="M107.034,17.209h8.156v3.207h-8.156V17.209z M109.918,34.177c-0.68-0.808-1.021-2.001-1.021-3.582V11.946
		h3.556V30.63c0,0.441,0.088,0.781,0.262,1.02c0.175,0.238,0.43,0.357,0.767,0.357h1.708v3.381h-2.057
		C111.669,35.388,110.598,34.984,109.918,34.177z"/>
	<path fill="#FFFFFF" d="M120.071,9.958h3.556v3.556h-3.556V9.958z M120.071,17.209h3.556v18.092h-3.556V17.209z"/>
	<path fill="#FFFFFF" d="M132.585,30.63c0,0.441,0.096,0.781,0.287,1.02s0.462,0.357,0.811,0.357h1.673v3.381h-2.091
		c-1.349,0-2.392-0.418-3.129-1.255c-0.738-0.836-1.106-2.016-1.106-3.538V9.958h3.556V30.63z"/>
	<path fill="#FFFFFF" d="M143.984,35.563c0,0-0.468-0.104-1.403-0.313s-1.81-0.523-2.623-0.941s-1.563-0.941-2.248-1.568
		l2.108-2.598c0.977,0.744,1.946,1.302,2.911,1.674c0.964,0.372,1.917,0.558,2.858,0.558c1.405,0,2.46-0.218,3.163-0.653
		c0.703-0.437,1.055-1.09,1.055-1.961c0-0.581-0.192-1.017-0.575-1.308c-0.384-0.29-0.86-0.485-1.43-0.584s-1.371-0.188-2.405-0.27
		c-0.093,0-0.191-0.003-0.296-0.009s-0.203-0.015-0.296-0.026c-0.047,0-0.094-0.003-0.14-0.009c-0.047-0.006-0.094-0.009-0.14-0.009
		c-1.174-0.093-2.167-0.264-2.98-0.514s-1.49-0.718-2.03-1.403s-0.811-1.667-0.811-2.945c0-1.279,0.262-2.342,0.784-3.19
		s1.301-1.484,2.336-1.909c1.033-0.424,2.329-0.636,3.887-0.636c0.94,0,1.839,0.087,2.692,0.261c0.854,0.174,1.67,0.433,2.449,0.776
		c0.778,0.343,1.527,0.775,2.248,1.298l-2.144,2.598c-0.906-0.582-1.799-1.017-2.676-1.308s-1.734-0.436-2.57-0.436
		c-1.209,0-2.115,0.207-2.72,0.619c-0.604,0.413-0.906,1.032-0.906,1.856c0,0.488,0.172,0.854,0.515,1.099
		c0.343,0.243,0.775,0.406,1.298,0.487c0.523,0.082,1.267,0.151,2.231,0.21c0.069,0.012,0.143,0.017,0.218,0.017
		s0.154,0.007,0.235,0.018c0.035,0,0.069,0,0.104,0s0.069,0.006,0.104,0.018c1.267,0.081,2.345,0.25,3.233,0.506
		s1.635,0.761,2.239,1.516c0.604,0.756,0.906,1.848,0.906,3.277c0,1.301-0.278,2.379-0.836,3.232
		c-0.558,0.854-1.397,1.497-2.519,1.927c-1.122,0.43-2.53,0.645-4.227,0.645C144.518,35.563,143.984,35.563,143.984,35.563z"/>
</g>
</svg>
